/vscmnt/brussel_pixiu_data/_data_brussel/112/vsc11236/PredSimResults/SUBJ11opt3D/trackIG/worker_14.mot
version=1
nRows=9
nColumns=50
inDegrees=yes
endheader
                time	         pelvis_tilt	         pelvis_list	     pelvis_rotation	           pelvis_tx	           pelvis_ty	           pelvis_tz	       hip_flexion_r	     hip_adduction_r	      hip_rotation_r	        knee_angle_r	       ankle_angle_r	         mtp_angle_r	       hip_flexion_l	     hip_adduction_l	      hip_rotation_l	        knee_angle_l	       ankle_angle_l	         mtp_angle_l	    lumbar_extension	      lumbar_bending	     lumbar_rotation	 ercspn_r/activation	 intobl_r/activation	 extobl_r/activation	    abd_r/activation	    add_r/activation	hamstrings_r/activation	bifemsh_r/activation	glut_max_r/activation	iliopsoas_r/activation	rect_fem_r/activation	  vasti_r/activation	gastroc_r/activation	 soleus_r/activation	tib_ant_r/activation	 ercspn_l/activation	 intobl_l/activation	 extobl_l/activation	    abd_l/activation	    add_l/activation	hamstrings_l/activation	bifemsh_l/activation	glut_max_l/activation	iliopsoas_l/activation	rect_fem_l/activation	  vasti_l/activation	gastroc_l/activation	 soleus_l/activation	tib_ant_l/activation	
          0.47730977	        -11.49282106	          5.78898380	         -9.10960286	          0.90688856	          0.91759120	          0.00544456	         -9.51571503	         -7.18078111	          2.08192278	        -16.25653643	          2.53147268	         45.23055585	         40.95805557	          0.34619251	         -7.88072764	         -7.75142701	          4.06840829	          0.35840847	         -9.27346453	         -5.05498041	          4.46537036	          0.01300674	          0.01159111	          0.01000007	          0.01805049	          0.26651942	          0.02092257	          0.31556540	          0.01805045	          0.75031277	          0.01343514	          0.01805044	          0.22210049	          0.19598566	          0.01000001	          0.11774073	          0.18133284	          0.01805047	          0.09827704	          0.54589746	          0.12911138	          0.42185468	          0.05267731	          0.14706704	          0.03203014	          0.01000000	          0.01805043	          0.01557277	          0.66625557	
          0.48685596	        -11.41401453	          5.63159296	         -9.11290399	          0.92968653	          0.91513377	          0.00456358	         -9.90069202	         -7.20151728	          1.69944148	        -17.99639208	          1.10088643	         46.39148932	         40.76683253	          0.40576558	         -8.25256952	         -9.34394559	          3.06621637	          0.39684987	         -8.78583784	         -4.98127704	          4.64724274	          0.02434978	          0.01000009	          0.01000034	          0.01557280	          0.31514092	          0.01805065	          0.27224964	          0.01557277	          0.84741797	          0.01159099	          0.01557276	          0.19161407	          0.16908386	          0.01000000	          0.10157917	          0.15644237	          0.01557279	          0.08478714	          0.52675421	          0.11138903	          0.36394919	          0.28130515	          0.12688001	          0.02763359	          0.01000002	          0.01557276	          0.01343519	          0.79605122	
          0.49640216	        -11.30986630	          5.50518830	         -9.05625421	          0.95233610	          0.91276344	          0.00366195	         -9.78110944	         -7.23808467	          1.33200142	        -20.68582388	         -0.09995720	         46.86688854	         40.46441867	          0.47845290	         -8.35566707	        -11.25360595	          2.18058495	          0.27067747	         -8.34526600	         -4.96374955	          4.75475851	          0.10379424	          0.01000001	          0.01000013	          0.01343522	          0.27188340	          0.01557295	          0.23487957	          0.01343519	          0.90675823	          0.01000001	          0.01343518	          0.16531234	          0.14587472	          0.01000000	          0.08763605	          0.14531895	          0.01343521	          0.21850254	          0.49009149	          0.09609933	          0.31399204	          0.45379950	          0.10946394	          0.02384053	          0.01000000	          0.01343518	          0.01159102	          0.87536840	
          0.50594835	        -11.18706872	          5.41388900	         -8.93684938	          0.97449070	          0.91077570	          0.00268641	         -9.08737374	         -7.30277236	          1.00212448	        -24.32454085	         -1.31211581	         46.75843830	         40.16811863	          0.60601598	         -8.40338601	        -13.17482592	          1.33738671	          0.23118341	         -7.99133901	         -5.00433732	          4.78423516	          0.11342286	          0.01000000	          0.01159092	          0.01159105	          0.23456359	          0.01343534	          0.20263909	          0.01159102	          0.83803829	          0.01000002	          0.01159101	          0.14262089	          0.12585136	          0.01000000	          0.10543991	          0.12537189	          0.01159104	          0.24781756	          0.42281955	          0.08290834	          0.27089221	          0.50588319	          0.09443848	          0.02056813	          0.02167913	          0.01159101	          0.00999999	          0.92383854	
          0.51549455	        -11.04704388	          5.36819249	         -8.75610388	          0.99592783	          0.90935497	          0.00164682	         -7.83216858	         -7.41143634	          0.72281123	        -28.78051526	         -2.74291180	         46.04671835	         40.01130051	          0.79167624	         -8.38280322	        -15.25337368	          0.42054228	          0.15003046	         -7.74800521	         -5.11868678	          4.73277275	          0.24135154	          0.01000001	          0.01000001	          0.01000001	          0.22928337	          0.01159116	          0.17482417	          0.00999999	          0.72300573	          0.01000001	          0.00999999	          0.12304417	          0.10857649	          0.00999999	          0.09096683	          0.10816284	          0.01000002	          0.29380433	          0.36478162	          0.07152801	          0.23370844	          0.52164424	          0.08147547	          0.01774493	          0.19292510	          0.01000001	          0.01000000	          0.95345829	
          0.52504074	        -10.89649802	          5.35753980	         -8.52785457	          1.01660988	          0.90868011	          0.00059137	         -6.09116727	         -7.55252014	          0.51545600	        -33.81021787	         -4.52813028	         44.55994680	         39.90114487	          1.03840169	         -8.26426971	        -17.42241143	         -0.03507752	          0.02863518	         -7.60863301	         -5.29217408	          4.61813840	          0.32080311	          0.01000000	          0.02363286	          0.00999999	          0.22438950	          0.01000011	          0.16672899	          0.00999999	          0.62376301	          0.01283116	          0.00999999	          0.10615462	          0.09367284	          0.04258219	          0.07848036	          0.09331597	          0.01000000	          0.35719535	          0.31471021	          0.06170979	          0.20162867	          0.46311251	          0.07029181	          0.01530928	          0.36366680	          0.01000000	          0.00999999	          0.97155870	
          0.53458694	        -10.74716700	          5.36502228	         -8.24588256	          1.03651567	          0.90892441	         -0.00045276	         -3.96812716	         -7.69248121	          0.40540267	        -39.17045440	         -6.43007829	         41.73186841	         39.67460838	          1.36295794	         -8.01318277	        -19.44010655	          0.26691488	         -0.08606078	         -7.56520039	         -5.50060690	          4.44272684	          0.33295219	          0.01000007	          0.14084589	          0.00999999	          0.22106398	          0.01000000	          0.14384345	          0.00999999	          0.53814275	          0.14613531	          0.00999999	          0.09158341	          0.08081492	          0.29055095	          0.06770783	          0.08050704	          0.01000000	          0.39358419	          0.27151180	          0.05323926	          0.17395230	          0.39954380	          0.06064327	          0.01320801	          0.48669865	          0.01000001	          0.01000000	          0.83819859	
          0.54413314	        -10.61189530	          5.39217281	         -7.91334075	          1.05554014	          0.91020030	         -0.00141558	         -1.58905780	         -7.77076187	          0.47331430	        -44.60674194	         -7.79833560	         37.20223858	         39.23986246	          1.75809957	         -7.69556033	        -21.13498852	          1.41937798	         -0.08520622	         -7.62246073	         -5.74692977	          4.22095357	          0.28724982	          0.03736533	          0.19743397	          0.00999999	          0.20472765	          0.01000000	          0.18588623	          0.00999999	          0.46427507	          0.26333300	          0.00999999	          0.07901230	          0.06972193	          0.32932418	          0.05841398	          0.06945632	          0.01000000	          0.35968189	          0.23424299	          0.04593143	          0.15007491	          0.34470079	          0.05231913	          0.01139531	          0.50145784	          0.01000009	          0.01000002	          0.72314402	
          0.55367933	        -10.49966411	          5.43703593	         -7.53097942	          1.07367348	          0.91249002	         -0.00226235	          0.90968202	         -7.72587313	          0.70978080	        -49.82199998	         -7.81640041	         32.82846928	         38.56255562	          2.21138378	         -7.34395788	        -22.33238134	          2.87348849	          0.06948648	         -7.78100375	         -6.02561275	          3.95887557	          0.24782074	          0.10202185	          0.21720955	          0.00999999	          0.17662594	          0.01000000	          0.20053392	          0.00999999	          0.40054678	          0.37626984	          0.00999999	          0.06816886	          0.06015162	          0.36424517	          0.05039584	          0.05992248	          0.01000001	          0.31031049	          0.20208987	          0.05766253	          0.12947502	          0.29738576	          0.04513759	          0.01000034	          0.47619385	          0.01000003	          0.01000000	          0.62388232	
